<svg xmlns="http://www.w3.org/2000/svg" viewBox="0 0 800 500" width="800" height="500">
  <title>06. Dashboard Layout</title>
  <defs>
    <style>
      .bg { fill: #f8fafc; }
      .card { fill: #ffffff; stroke: #94a3b8; stroke-width: 1; rx: 6; }
      .nav { fill: #1e293b; }
      .accent { fill: #2563eb; }
      .text { fill: #64748b; font-family: sans-serif; font-size: 11px; }
      .text-sm { fill: #64748b; font-family: sans-serif; font-size: 9px; }
      .label { fill: #2563eb; font-family: sans-serif; font-size: 12px; font-weight: 700; }
      .line { fill: none; stroke: #e2e8f0; stroke-width: 1; }
      .line-accent { fill: none; stroke: #2563eb; stroke-width: 2; }
      .placeholder { fill: #e2e8f0; rx: 4; }
    </style>
  </defs>
  <rect width="800" height="500" class="bg"/>
  <rect x="0" y="0" width="800" height="40" class="nav"/>
  <text x="16" y="25" fill="#f1f5f9" class="text" font-weight="700">FEA Dashboard</text>
  <rect x="0" y="40" width="56" height="460" fill="#1e293b"/>
  <rect x="16" y="56" width="24" height="24" fill="#334155" rx="4"/>
  <rect x="16" y="88" width="24" height="24" fill="#334155" rx="4"/>
  <rect x="16" y="120" width="24" height="24" fill="#334155" rx="4"/>
  <rect x="16" y="152" width="24" height="24" fill="#334155" rx="4"/>
  <rect x="16" y="184" width="24" height="24" fill="#334155" rx="4"/>
  <rect x="72" y="52" width="168" height="72" class="card"/>
  <rect x="84" y="64" width="80" height="6" class="placeholder"/>
  <rect x="84" y="78" width="50" height="14" fill="#2563eb" rx="2"/>
  <rect x="252" y="52" width="168" height="72" class="card"/>
  <rect x="264" y="64" width="80" height="6" class="placeholder"/>
  <rect x="264" y="78" width="50" height="14" fill="#2563eb" rx="2"/>
  <rect x="432" y="52" width="168" height="72" class="card"/>
  <rect x="444" y="64" width="80" height="6" class="placeholder"/>
  <rect x="444" y="78" width="50" height="14" fill="#2563eb" rx="2"/>
  <rect x="612" y="52" width="168" height="72" class="card"/>
  <rect x="624" y="64" width="80" height="6" class="placeholder"/>
  <rect x="624" y="78" width="50" height="14" fill="#2563eb" rx="2"/>
  <rect x="72" y="140" width="540" height="240" class="card"/>
  <rect x="84" y="152" width="516" height="216" class="placeholder"/>
  <rect x="624" y="140" width="164" height="240" class="card"/>
  <rect x="636" y="156" width="140" height="36" class="placeholder"/>
  <rect x="636" y="200" width="140" height="36" class="placeholder"/>
  <rect x="636" y="244" width="140" height="36" class="placeholder"/>
  <rect x="636" y="288" width="140" height="36" class="placeholder"/>
  <rect x="636" y="332" width="140" height="36" class="placeholder"/>
  <rect x="72" y="396" width="348" height="88" class="card"/>
  <rect x="432" y="396" width="348" height="88" class="card"/>
  <text x="400" y="488" class="label" text-anchor="middle">06. Dashboard Layout</text>
</svg>
