<svg xmlns="http://www.w3.org/2000/svg" viewBox="0 0 800 500" width="800" height="500">
<rect width="800" height="500" fill="#f8fafc"/>
<rect x="0" y="0" width="800" height="30" fill="#e2e8f0" />
<circle cx="14" cy="15" r="5" fill="#f87171"/>
<circle cx="32" cy="15" r="5" fill="#fbbf24"/>
<circle cx="50" cy="15" r="5" fill="#4ade80"/>
<rect x="70" y="7" width="710" height="16" rx="4" fill="#f8fafc"/>
<rect x="80" y="12" width="140" height="6" rx="3" fill="#e2e8f0"/>
<rect x="0" y="30" width="160" height="470" fill="#1e293b"/>
<rect x="16" y="46" width="20" height="20" rx="3" fill="#2563eb"/>
<rect x="42" y="50" width="80" height="6" rx="3" fill="#2563eb"/>
<rect x="4" y="76" width="152" height="22" rx="4" fill="#ffffff10"/>
<rect x="16" y="80" width="70" height="6" rx="3" fill="#2563eb"/>
<rect x="16" y="108" width="85" height="6" rx="3" fill="#94a3b8"/>
<rect x="16" y="136" width="100" height="6" rx="3" fill="#94a3b8"/>
<rect x="16" y="164" width="70" height="6" rx="3" fill="#94a3b8"/>
<rect x="16" y="192" width="85" height="6" rx="3" fill="#94a3b8"/>
<rect x="16" y="220" width="100" height="6" rx="3" fill="#94a3b8"/>
<rect x="16" y="248" width="70" height="6" rx="3" fill="#94a3b8"/>
<rect x="16" y="276" width="85" height="6" rx="3" fill="#94a3b8"/>
<rect x="176" y="46" width="200" height="10" rx="4" fill="#64748b"/>
<rect x="176" y="64" width="300" height="6" rx="3" fill="#e2e8f0"/>
<rect x="176" y="90" width="608" height="80" fill="#ffffff" rx="8" ry="8" stroke="#94a3b8" stroke-width="1"/>
<rect x="192" y="106" width="544" height="10" rx="4" fill="#64748b"/>
<rect x="192" y="124" width="576" height="6" rx="3" fill="#e2e8f0"/>
<rect x="192" y="136" width="576" height="6" rx="3" fill="#e2e8f0"/>
<rect x="192" y="148" width="345" height="6" rx="3" fill="#e2e8f0"/>
<rect x="176" y="186" width="608" height="80" fill="#ffffff" rx="8" ry="8" stroke="#94a3b8" stroke-width="1"/>
<rect x="192" y="202" width="544" height="10" rx="4" fill="#64748b"/>
<rect x="192" y="220" width="576" height="6" rx="3" fill="#e2e8f0"/>
<rect x="192" y="232" width="576" height="6" rx="3" fill="#e2e8f0"/>
<rect x="192" y="244" width="345" height="6" rx="3" fill="#e2e8f0"/>
<rect x="176" y="282" width="608" height="80" fill="#ffffff" rx="8" ry="8" stroke="#94a3b8" stroke-width="1"/>
<rect x="192" y="298" width="544" height="10" rx="4" fill="#64748b"/>
<rect x="192" y="316" width="576" height="6" rx="3" fill="#e2e8f0"/>
<rect x="192" y="328" width="576" height="6" rx="3" fill="#e2e8f0"/>
<rect x="192" y="340" width="345" height="6" rx="3" fill="#e2e8f0"/>
<!-- Title bar -->
<rect x="0" y="472" width="800" height="28" fill="#1e293b"/>
<text x="400" y="490" text-anchor="middle" font-family="system-ui, sans-serif" font-size="11" fill="#94a3b8">02B. Sidebar Nav -- Bordered / Normal</text>
</svg>