<svg xmlns="http://www.w3.org/2000/svg" viewBox="0 0 800 500" width="800" height="500">
<rect width="800" height="500" fill="#f8fafc"/>
<rect x="0" y="0" width="800" height="30" fill="#e2e8f0" />
<circle cx="14" cy="15" r="5" fill="#f87171"/>
<circle cx="32" cy="15" r="5" fill="#fbbf24"/>
<circle cx="50" cy="15" r="5" fill="#4ade80"/>
<rect x="70" y="7" width="710" height="16" rx="4" fill="#f8fafc"/>
<rect x="80" y="12" width="140" height="6" rx="3" fill="#e2e8f0"/>
<rect x="0" y="30" width="800" height="32" fill="#1e293b"/>
<rect x="8" y="42" width="100" height="6" rx="3" fill="#2563eb"/>
<rect x="620" y="42" width="40" height="6" rx="3" fill="#94a3b8"/>
<rect x="675" y="42" width="40" height="6" rx="3" fill="#94a3b8"/>
<rect x="730" y="42" width="40" height="6" rx="3" fill="#94a3b8"/>
<rect x="0" y="70" width="800" height="90" fill="#f8fafc" />
<rect x="80" y="78" width="180" height="10" rx="4" fill="#64748b"/>
<rect x="288" y="78" width="2" height="10" fill="#2563eb" />
<rect x="80" y="98" width="640" height="6" rx="3" fill="#e2e8f0"/>
<rect x="80" y="110" width="640" height="6" rx="3" fill="#e2e8f0"/>
<rect x="80" y="122" width="384" height="6" rx="3" fill="#e2e8f0"/>
<rect x="560" y="94" width="160" height="64" fill="#ffffff" rx="8" ry="8" stroke="#94a3b8" stroke-width="1"/>
<line x1="570" y1="104" x2="710" y2="148" stroke="#e2e8f0" stroke-width="1"/>
<line x1="710" y1="104" x2="570" y2="148" stroke="#e2e8f0" stroke-width="1"/>
<rect x="0" y="168" width="800" height="90" fill="#f1f5f9" />
<rect x="80" y="176" width="180" height="10" rx="4" fill="#64748b"/>
<rect x="288" y="176" width="2" height="10" fill="#2563eb" />
<rect x="80" y="196" width="640" height="6" rx="3" fill="#e2e8f0"/>
<rect x="80" y="208" width="640" height="6" rx="3" fill="#e2e8f0"/>
<rect x="80" y="220" width="384" height="6" rx="3" fill="#e2e8f0"/>
<rect x="80" y="192" width="160" height="64" fill="#ffffff" rx="8" ry="8" stroke="#94a3b8" stroke-width="1"/>
<rect x="0" y="266" width="800" height="90" fill="#f8fafc" />
<rect x="80" y="274" width="180" height="10" rx="4" fill="#64748b"/>
<rect x="288" y="274" width="2" height="10" fill="#2563eb" />
<rect x="80" y="294" width="640" height="6" rx="3" fill="#e2e8f0"/>
<rect x="80" y="306" width="640" height="6" rx="3" fill="#e2e8f0"/>
<rect x="80" y="318" width="384" height="6" rx="3" fill="#e2e8f0"/>
<rect x="560" y="290" width="160" height="64" fill="#ffffff" rx="8" ry="8" stroke="#94a3b8" stroke-width="1"/>
<line x1="570" y1="300" x2="710" y2="344" stroke="#e2e8f0" stroke-width="1"/>
<line x1="710" y1="300" x2="570" y2="344" stroke="#e2e8f0" stroke-width="1"/>
<rect x="0" y="364" width="800" height="90" fill="#f1f5f9" />
<rect x="80" y="372" width="180" height="10" rx="4" fill="#64748b"/>
<rect x="288" y="372" width="2" height="10" fill="#2563eb" />
<rect x="80" y="392" width="640" height="6" rx="3" fill="#e2e8f0"/>
<rect x="80" y="404" width="640" height="6" rx="3" fill="#e2e8f0"/>
<rect x="80" y="416" width="384" height="6" rx="3" fill="#e2e8f0"/>
<rect x="80" y="388" width="160" height="64" fill="#ffffff" rx="8" ry="8" stroke="#94a3b8" stroke-width="1"/>
<!-- Title bar -->
<rect x="0" y="472" width="800" height="28" fill="#1e293b"/>
<text x="400" y="490" text-anchor="middle" font-family="system-ui, sans-serif" font-size="11" fill="#94a3b8">03B. Fullwidth Sections -- Bordered / Compact</text>
</svg>