<svg xmlns="http://www.w3.org/2000/svg" viewBox="0 0 800 500" width="800" height="500">
<defs>
  <linearGradient id="grad-card" x1="0" y1="0" x2="1" y2="1">
    <stop offset="0%" stop-color="#ffffff"/>
    <stop offset="100%" stop-color="#dbeafe"/>
  </linearGradient>
  <linearGradient id="grad-header" x1="0" y1="0" x2="1" y2="0">
    <stop offset="0%" stop-color="#1e293b"/>
    <stop offset="100%" stop-color="#1e3a5f"/>
  </linearGradient>
</defs>
<rect width="800" height="500" fill="#f8fafc"/>
<rect x="0" y="0" width="800" height="30" fill="#e2e8f0" />
<circle cx="14" cy="15" r="5" fill="#f87171"/>
<circle cx="32" cy="15" r="5" fill="#fbbf24"/>
<circle cx="50" cy="15" r="5" fill="#4ade80"/>
<rect x="70" y="7" width="710" height="16" rx="4" fill="#f8fafc"/>
<rect x="80" y="12" width="140" height="6" rx="3" fill="#e2e8f0"/>
<rect x="0" y="30" width="800" height="32" fill="url(#grad-header)"/>
<rect x="16" y="42" width="100" height="6" rx="3" fill="#2563eb"/>
<rect x="620" y="42" width="40" height="6" rx="3" fill="#94a3b8"/>
<rect x="675" y="42" width="40" height="6" rx="3" fill="#94a3b8"/>
<rect x="730" y="42" width="40" height="6" rx="3" fill="#94a3b8"/>
<rect x="0" y="78" width="800" height="90" fill="#f8fafc" />
<rect x="80" y="94" width="180" height="10" rx="4" fill="#64748b"/>
<rect x="296" y="94" width="2" height="10" fill="#2563eb" />
<rect x="80" y="114" width="640" height="6" rx="3" fill="#e2e8f0"/>
<rect x="80" y="126" width="640" height="6" rx="3" fill="#e2e8f0"/>
<rect x="80" y="138" width="384" height="6" rx="3" fill="#e2e8f0"/>
<rect x="560" y="110" width="160" height="48" fill="url(#grad-card)" rx="6" ry="6" stroke="none"/>
<line x1="570" y1="120" x2="710" y2="148" stroke="#e2e8f0" stroke-width="1"/>
<line x1="710" y1="120" x2="570" y2="148" stroke="#e2e8f0" stroke-width="1"/>
<rect x="0" y="184" width="800" height="90" fill="#f1f5f9" />
<rect x="80" y="200" width="180" height="10" rx="4" fill="#64748b"/>
<rect x="296" y="200" width="2" height="10" fill="#2563eb" />
<rect x="80" y="220" width="640" height="6" rx="3" fill="#e2e8f0"/>
<rect x="80" y="232" width="640" height="6" rx="3" fill="#e2e8f0"/>
<rect x="80" y="244" width="384" height="6" rx="3" fill="#e2e8f0"/>
<rect x="80" y="216" width="160" height="48" fill="url(#grad-card)" rx="6" ry="6" stroke="none"/>
<rect x="0" y="290" width="800" height="90" fill="#f8fafc" />
<rect x="80" y="306" width="180" height="10" rx="4" fill="#64748b"/>
<rect x="296" y="306" width="2" height="10" fill="#2563eb" />
<rect x="80" y="326" width="640" height="6" rx="3" fill="#e2e8f0"/>
<rect x="80" y="338" width="640" height="6" rx="3" fill="#e2e8f0"/>
<rect x="80" y="350" width="384" height="6" rx="3" fill="#e2e8f0"/>
<rect x="560" y="322" width="160" height="48" fill="url(#grad-card)" rx="6" ry="6" stroke="none"/>
<line x1="570" y1="332" x2="710" y2="360" stroke="#e2e8f0" stroke-width="1"/>
<line x1="710" y1="332" x2="570" y2="360" stroke="#e2e8f0" stroke-width="1"/>
<rect x="0" y="396" width="800" height="90" fill="#f1f5f9" />
<rect x="80" y="412" width="180" height="10" rx="4" fill="#64748b"/>
<rect x="296" y="412" width="2" height="10" fill="#2563eb" />
<rect x="80" y="432" width="640" height="6" rx="3" fill="#e2e8f0"/>
<rect x="80" y="444" width="640" height="6" rx="3" fill="#e2e8f0"/>
<rect x="80" y="456" width="384" height="6" rx="3" fill="#e2e8f0"/>
<rect x="80" y="428" width="160" height="48" fill="url(#grad-card)" rx="6" ry="6" stroke="none"/>
<!-- Title bar -->
<rect x="0" y="472" width="800" height="28" fill="#1e293b"/>
<text x="400" y="490" text-anchor="middle" font-family="system-ui, sans-serif" font-size="11" fill="#94a3b8">03E. Fullwidth Sections -- Gradient / Normal</text>
</svg>