<svg xmlns="http://www.w3.org/2000/svg" viewBox="0 0 800 500" width="800" height="500">
<rect width="800" height="500" fill="#f8fafc"/>
<rect x="0" y="0" width="800" height="30" fill="#e2e8f0" />
<circle cx="14" cy="15" r="5" fill="#f87171"/>
<circle cx="32" cy="15" r="5" fill="#fbbf24"/>
<circle cx="50" cy="15" r="5" fill="#4ade80"/>
<rect x="70" y="7" width="710" height="16" rx="4" fill="#f8fafc"/>
<rect x="80" y="12" width="140" height="6" rx="3" fill="#e2e8f0"/>
<rect x="0" y="30" width="800" height="36" fill="#1e293b"/>
<rect x="16" y="38" width="20" height="20" rx="3" fill="#2563eb"/>
<rect x="42" y="42" width="80" height="6" rx="3" fill="#2563eb"/>
<rect x="16" y="82" width="240" height="10" rx="4" fill="#64748b"/>
<rect x="16" y="100" width="360" height="6" rx="3" fill="#e2e8f0"/>
<rect x="0" y="144" width="800" height="2" fill="#94a3b8"/>
<rect x="16" y="118" width="80" height="28" fill="#f8fafc" stroke="#94a3b8" stroke-width="1" rx="4"/>
<rect x="16" y="142" width="80" height="4" fill="#f8fafc"/>
<rect x="26" y="128" width="60" height="6" rx="3" fill="#2563eb"/>
<rect x="122" y="128" width="60" height="6" rx="3" fill="#64748b"/>
<rect x="218" y="128" width="60" height="6" rx="3" fill="#64748b"/>
<rect x="314" y="128" width="60" height="6" rx="3" fill="#64748b"/>
<rect x="410" y="128" width="60" height="6" rx="3" fill="#64748b"/>
<rect x="16" y="162" width="768" height="318" fill="#ffffff" fill-opacity="0.5" rx="10" ry="10" stroke="#94a3b8" stroke-width="1" stroke-dasharray="4,2" fill-opacity="0.5"/>
<rect x="32" y="178" width="180" height="10" rx="4" fill="#64748b"/>
<rect x="32" y="196" width="360" height="6" rx="3" fill="#e2e8f0"/>
<rect x="32" y="208" width="360" height="6" rx="3" fill="#e2e8f0"/>
<rect x="32" y="220" width="360" height="6" rx="3" fill="#e2e8f0"/>
<rect x="32" y="232" width="216" height="6" rx="3" fill="#e2e8f0"/>
<rect x="408" y="178" width="120" height="10" rx="4" fill="#64748b"/>
<rect x="408" y="196" width="360" height="16" fill="#f1f5f9" rx="2"/>
<rect x="424" y="201" width="90" height="6" rx="3" fill="#64748b"/>
<rect x="544" y="201" width="90" height="6" rx="3" fill="#64748b"/>
<rect x="664" y="201" width="90" height="6" rx="3" fill="#64748b"/>
<rect x="424" y="216" width="72" height="6" rx="3" fill="#e2e8f0"/>
<rect x="544" y="216" width="72" height="6" rx="3" fill="#e2e8f0"/>
<rect x="664" y="216" width="72" height="6" rx="3" fill="#e2e8f0"/>
<rect x="424" y="234" width="72" height="6" rx="3" fill="#e2e8f0"/>
<rect x="544" y="234" width="72" height="6" rx="3" fill="#e2e8f0"/>
<rect x="664" y="234" width="72" height="6" rx="3" fill="#e2e8f0"/>
<rect x="424" y="252" width="72" height="6" rx="3" fill="#e2e8f0"/>
<rect x="544" y="252" width="72" height="6" rx="3" fill="#e2e8f0"/>
<rect x="664" y="252" width="72" height="6" rx="3" fill="#e2e8f0"/>
<rect x="424" y="270" width="72" height="6" rx="3" fill="#e2e8f0"/>
<rect x="544" y="270" width="72" height="6" rx="3" fill="#e2e8f0"/>
<rect x="664" y="270" width="72" height="6" rx="3" fill="#e2e8f0"/>
<rect x="32" y="440" width="80" height="24" rx="5" fill="#2563eb"/>
<rect x="44" y="448" width="56" height="6" rx="3" fill="white"/>
<rect x="122" y="440" width="80" height="24" rx="5" fill="none" stroke="#94a3b8" stroke-width="1"/>
<rect x="134" y="448" width="56" height="6" rx="3" fill="#64748b"/>
<!-- Title bar -->
<rect x="0" y="472" width="800" height="28" fill="#1e293b"/>
<text x="400" y="490" text-anchor="middle" font-family="system-ui, sans-serif" font-size="11" fill="#94a3b8">09D. Tabbed Sections -- Glass / Normal</text>
</svg>