<svg xmlns="http://www.w3.org/2000/svg" viewBox="0 0 800 500" width="800" height="500">
<defs>
  <linearGradient id="grad-card" x1="0" y1="0" x2="1" y2="1">
    <stop offset="0%" stop-color="#ffffff"/>
    <stop offset="100%" stop-color="#dbeafe"/>
  </linearGradient>
  <linearGradient id="grad-header" x1="0" y1="0" x2="1" y2="0">
    <stop offset="0%" stop-color="#1e293b"/>
    <stop offset="100%" stop-color="#1e3a5f"/>
  </linearGradient>
</defs>
<rect width="800" height="500" fill="#f8fafc"/>
<rect x="0" y="0" width="800" height="30" fill="#e2e8f0" />
<circle cx="14" cy="15" r="5" fill="#f87171"/>
<circle cx="32" cy="15" r="5" fill="#fbbf24"/>
<circle cx="50" cy="15" r="5" fill="#4ade80"/>
<rect x="70" y="7" width="710" height="16" rx="4" fill="#f8fafc"/>
<rect x="80" y="12" width="140" height="6" rx="3" fill="#e2e8f0"/>
<rect x="0" y="30" width="800" height="36" fill="url(#grad-header)"/>
<rect x="8" y="38" width="20" height="20" rx="3" fill="#2563eb"/>
<rect x="34" y="42" width="80" height="6" rx="3" fill="#2563eb"/>
<rect x="8" y="74" width="240" height="10" rx="4" fill="#64748b"/>
<rect x="8" y="92" width="360" height="6" rx="3" fill="#e2e8f0"/>
<rect x="0" y="136" width="800" height="2" fill="#94a3b8"/>
<rect x="8" y="110" width="80" height="28" fill="#f8fafc" stroke="#94a3b8" stroke-width="1" rx="4"/>
<rect x="8" y="134" width="80" height="4" fill="#f8fafc"/>
<rect x="18" y="120" width="60" height="6" rx="3" fill="#2563eb"/>
<rect x="106" y="120" width="60" height="6" rx="3" fill="#64748b"/>
<rect x="194" y="120" width="60" height="6" rx="3" fill="#64748b"/>
<rect x="282" y="120" width="60" height="6" rx="3" fill="#64748b"/>
<rect x="370" y="120" width="60" height="6" rx="3" fill="#64748b"/>
<rect x="8" y="146" width="784" height="334" fill="url(#grad-card)" rx="6" ry="6" stroke="none"/>
<rect x="16" y="154" width="180" height="10" rx="4" fill="#64748b"/>
<rect x="16" y="172" width="380" height="6" rx="3" fill="#e2e8f0"/>
<rect x="16" y="184" width="380" height="6" rx="3" fill="#e2e8f0"/>
<rect x="16" y="196" width="380" height="6" rx="3" fill="#e2e8f0"/>
<rect x="16" y="208" width="228" height="6" rx="3" fill="#e2e8f0"/>
<rect x="404" y="154" width="120" height="10" rx="4" fill="#64748b"/>
<rect x="404" y="172" width="380" height="16" fill="#f1f5f9" rx="2"/>
<rect x="412" y="177" width="95" height="6" rx="3" fill="#64748b"/>
<rect x="538" y="177" width="95" height="6" rx="3" fill="#64748b"/>
<rect x="664" y="177" width="95" height="6" rx="3" fill="#64748b"/>
<rect x="412" y="192" width="76" height="6" rx="3" fill="#e2e8f0"/>
<rect x="538" y="192" width="76" height="6" rx="3" fill="#e2e8f0"/>
<rect x="664" y="192" width="76" height="6" rx="3" fill="#e2e8f0"/>
<rect x="412" y="210" width="76" height="6" rx="3" fill="#e2e8f0"/>
<rect x="538" y="210" width="76" height="6" rx="3" fill="#e2e8f0"/>
<rect x="664" y="210" width="76" height="6" rx="3" fill="#e2e8f0"/>
<rect x="412" y="228" width="76" height="6" rx="3" fill="#e2e8f0"/>
<rect x="538" y="228" width="76" height="6" rx="3" fill="#e2e8f0"/>
<rect x="664" y="228" width="76" height="6" rx="3" fill="#e2e8f0"/>
<rect x="412" y="246" width="76" height="6" rx="3" fill="#e2e8f0"/>
<rect x="538" y="246" width="76" height="6" rx="3" fill="#e2e8f0"/>
<rect x="664" y="246" width="76" height="6" rx="3" fill="#e2e8f0"/>
<rect x="16" y="448" width="80" height="24" rx="5" fill="#2563eb"/>
<rect x="28" y="456" width="56" height="6" rx="3" fill="white"/>
<rect x="106" y="448" width="80" height="24" rx="5" fill="none" stroke="#94a3b8" stroke-width="1"/>
<rect x="118" y="456" width="56" height="6" rx="3" fill="#64748b"/>
<!-- Title bar -->
<rect x="0" y="472" width="800" height="28" fill="#1e293b"/>
<text x="400" y="490" text-anchor="middle" font-family="system-ui, sans-serif" font-size="11" fill="#94a3b8">09E. Tabbed Sections -- Gradient / Compact</text>
</svg>