<svg xmlns="http://www.w3.org/2000/svg" viewBox="0 0 800 500" width="800" height="500">
<defs>
  <filter id="shadow" x="-4%" y="-4%" width="108%" height="116%">
    <feDropShadow dx="0" dy="2" stdDeviation="3" flood-color="#00000030"/>
  </filter>
</defs>
<rect width="800" height="500" fill="#f8fafc"/>
<rect x="0" y="0" width="800" height="30" fill="#e2e8f0" />
<circle cx="14" cy="15" r="5" fill="#f87171"/>
<circle cx="32" cy="15" r="5" fill="#fbbf24"/>
<circle cx="50" cy="15" r="5" fill="#4ade80"/>
<rect x="70" y="7" width="710" height="16" rx="4" fill="#f8fafc"/>
<rect x="80" y="12" width="140" height="6" rx="3" fill="#e2e8f0"/>
<rect x="0" y="30" width="800" height="32" fill="#1e293b"/>
<rect x="8" y="38" width="16" height="16" rx="3" fill="#2563eb"/>
<rect x="30" y="42" width="60" height="6" rx="3" fill="#2563eb"/>
<rect x="120" y="36" width="64" height="20" rx="3" fill="#ffffff15"/>
<rect x="130" y="43" width="44" height="5" rx="2" fill="#94a3b8"/>
<rect x="200" y="36" width="64" height="20" rx="3" fill="none"/>
<rect x="210" y="43" width="44" height="5" rx="2" fill="#94a3b8"/>
<rect x="280" y="36" width="64" height="20" rx="3" fill="none"/>
<rect x="290" y="43" width="44" height="5" rx="2" fill="#94a3b8"/>
<rect x="398" y="62" width="4" height="428" fill="#94a3b8"/>
<rect x="0" y="62" width="398" height="428" fill="#1e293b" />
<rect x="8" y="70" width="16" height="5" rx="2" fill="#475569"/>
<rect x="32" y="70" width="93" height="5" rx="2" fill="#2563eb"/>
<rect x="8" y="90" width="16" height="5" rx="2" fill="#475569"/>
<rect x="32" y="90" width="140" height="5" rx="2" fill="#64748b"/>
<rect x="32" y="90" width="12" height="5" rx="2" fill="#475569"/>
<rect x="48" y="90" width="120" height="5" rx="2" fill="#64748b"/>
<rect x="8" y="110" width="16" height="5" rx="2" fill="#475569"/>
<rect x="32" y="110" width="187" height="5" rx="2" fill="#94a3b8"/>
<rect x="32" y="110" width="12" height="5" rx="2" fill="#475569"/>
<rect x="48" y="110" width="167" height="5" rx="2" fill="#94a3b8"/>
<rect x="8" y="130" width="16" height="5" rx="2" fill="#475569"/>
<rect x="32" y="130" width="234" height="5" rx="2" fill="#64748b"/>
<rect x="32" y="130" width="12" height="5" rx="2" fill="#475569"/>
<rect x="48" y="130" width="214" height="5" rx="2" fill="#64748b"/>
<rect x="8" y="150" width="16" height="5" rx="2" fill="#475569"/>
<rect x="32" y="150" width="81" height="5" rx="2" fill="#64748b"/>
<rect x="8" y="170" width="16" height="5" rx="2" fill="#475569"/>
<rect x="32" y="170" width="128" height="5" rx="2" fill="#2563eb"/>
<rect x="8" y="190" width="16" height="5" rx="2" fill="#475569"/>
<rect x="32" y="190" width="175" height="5" rx="2" fill="#64748b"/>
<rect x="32" y="190" width="12" height="5" rx="2" fill="#475569"/>
<rect x="48" y="190" width="155" height="5" rx="2" fill="#64748b"/>
<rect x="8" y="210" width="16" height="5" rx="2" fill="#475569"/>
<rect x="32" y="210" width="222" height="5" rx="2" fill="#94a3b8"/>
<rect x="32" y="210" width="12" height="5" rx="2" fill="#475569"/>
<rect x="48" y="210" width="202" height="5" rx="2" fill="#94a3b8"/>
<rect x="8" y="230" width="16" height="5" rx="2" fill="#475569"/>
<rect x="32" y="230" width="269" height="5" rx="2" fill="#64748b"/>
<rect x="32" y="230" width="12" height="5" rx="2" fill="#475569"/>
<rect x="48" y="230" width="249" height="5" rx="2" fill="#64748b"/>
<rect x="8" y="250" width="16" height="5" rx="2" fill="#475569"/>
<rect x="32" y="250" width="116" height="5" rx="2" fill="#64748b"/>
<rect x="8" y="270" width="16" height="5" rx="2" fill="#475569"/>
<rect x="32" y="270" width="163" height="5" rx="2" fill="#64748b"/>
<rect x="8" y="290" width="16" height="5" rx="2" fill="#475569"/>
<rect x="32" y="290" width="210" height="5" rx="2" fill="#2563eb"/>
<rect x="8" y="310" width="16" height="5" rx="2" fill="#475569"/>
<rect x="32" y="310" width="257" height="5" rx="2" fill="#64748b"/>
<rect x="32" y="310" width="12" height="5" rx="2" fill="#475569"/>
<rect x="48" y="310" width="237" height="5" rx="2" fill="#64748b"/>
<rect x="8" y="330" width="16" height="5" rx="2" fill="#475569"/>
<rect x="32" y="330" width="104" height="5" rx="2" fill="#64748b"/>
<rect x="32" y="330" width="12" height="5" rx="2" fill="#475569"/>
<rect x="48" y="330" width="84" height="5" rx="2" fill="#64748b"/>
<rect x="8" y="350" width="16" height="5" rx="2" fill="#475569"/>
<rect x="32" y="350" width="151" height="5" rx="2" fill="#64748b"/>
<rect x="8" y="370" width="16" height="5" rx="2" fill="#475569"/>
<rect x="32" y="370" width="198" height="5" rx="2" fill="#64748b"/>
<rect x="8" y="390" width="16" height="5" rx="2" fill="#475569"/>
<rect x="32" y="390" width="245" height="5" rx="2" fill="#64748b"/>
<rect x="8" y="410" width="16" height="5" rx="2" fill="#475569"/>
<rect x="32" y="410" width="92" height="5" rx="2" fill="#64748b"/>
<rect x="402" y="62" width="398" height="428" fill="#f8fafc" />
<rect x="402" y="62" width="398" height="24" fill="#f1f5f9" />
<circle cx="418" cy="74" r="4" fill="#2563eb"/>
<rect x="428" y="70" width="50" height="5" rx="2" fill="#64748b"/>
<rect x="412" y="94" width="253" height="10" rx="4" fill="#64748b"/>
<rect x="412" y="112" width="380" height="6" rx="3" fill="#e2e8f0"/>
<rect x="412" y="124" width="380" height="6" rx="3" fill="#e2e8f0"/>
<rect x="412" y="136" width="228" height="6" rx="3" fill="#e2e8f0"/>
<rect x="412" y="160" width="380" height="70" fill="#ffffff" rx="6" ry="6" stroke="none" filter="url(#shadow)"/>
<rect x="420" y="168" width="190" height="10" rx="4" fill="#64748b"/>
<rect x="420" y="184" width="364" height="6" rx="3" fill="#e2e8f0"/>
<rect x="420" y="194" width="218" height="6" rx="3" fill="#e2e8f0"/>
<rect x="412" y="240" width="380" height="60" fill="#ffffff" rx="6" ry="6" stroke="none" filter="url(#shadow)"/>
<rect x="420" y="250" width="126" height="30" fill="#e2e8f0" rx="4"/>
<rect x="554" y="250" width="190" height="6" rx="3" fill="#e2e8f0"/>
<rect x="554" y="262" width="114" height="6" rx="3" fill="#e2e8f0"/>
<!-- Title bar -->
<rect x="0" y="472" width="800" height="28" fill="#1e293b"/>
<text x="400" y="490" text-anchor="middle" font-family="system-ui, sans-serif" font-size="11" fill="#94a3b8">10C. Split Panel -- Shadowed / Compact</text>
</svg>